<svg width="110" height="32" viewBox="0 0 110 32" fill="none" xmlns="http://www.w3.org/2000/svg">
<path d="M56.1457 25.9443H52.8428L47.1633 18.1186L41.4436 25.9443H38.1406L45.4716 15.8712L38.7448 6.60063H42.0478L47.1633 13.6238L52.2788 6.60063H55.5818L48.8148 15.8712L56.1457 25.9443ZM73.3049 20.4462C73.3049 22.1318 72.741 23.4963 71.6132 24.4594C70.4853 25.4226 68.8741 25.9443 66.7796 25.9443H57.7166V17.3159H53.3664L55.179 14.8277H57.7166V6.60063H66.4171C68.3908 6.60063 69.8811 7.08222 70.9284 8.00526C71.9757 8.9283 72.4993 10.1724 72.4993 11.6573C72.4993 13.5034 71.6535 14.9481 69.9617 15.8712C71.0493 16.2725 71.8548 16.9146 72.4188 17.6771C73.023 18.4396 73.3049 19.4028 73.3049 20.4462ZM60.6571 14.8679H66.2157C67.3435 14.8679 68.1894 14.6271 68.7533 14.1053C69.3172 13.6238 69.5992 12.8612 69.5992 11.8579C69.5992 11.0152 69.3172 10.3329 68.713 9.85134C68.1491 9.36975 67.3032 9.12896 66.2157 9.12896H60.6571V14.8679ZM70.3242 20.366C70.3242 19.3627 70.002 18.56 69.3978 18.0784C68.7936 17.5567 67.8671 17.3159 66.6587 17.3159H60.6571V23.3759H66.6185C67.7866 23.3759 68.713 23.0949 69.3575 22.6134C70.002 22.0916 70.3242 21.3291 70.3242 20.366ZM93.2837 16.2725C93.2837 17.7574 93.0823 19.162 92.6392 20.366C92.1962 21.5699 91.5517 22.6535 90.7058 23.5765C89.8197 24.4996 88.8127 25.2219 87.6848 25.6634C86.557 26.145 85.268 26.3456 83.818 26.3456C82.4082 26.3456 81.0789 26.1049 79.9511 25.6634C78.8233 25.1818 77.8163 24.4996 76.9301 23.5765C76.044 22.6535 75.3995 21.5699 74.9564 20.366C74.5133 19.162 74.3119 17.7574 74.3119 16.2725C74.3119 14.7876 74.5133 13.383 74.9564 12.179C75.3995 10.975 76.044 9.85134 76.9301 8.9283C77.776 8.00526 78.783 7.32301 79.9511 6.84143C81.0789 6.39997 82.4082 6.15918 83.818 6.15918C85.2278 6.15918 86.5167 6.39997 87.6848 6.84143C88.8127 7.28288 89.8599 8.00526 90.7058 8.9283C91.5517 9.85134 92.2364 10.975 92.6392 12.179C93.042 13.383 93.2837 14.7475 93.2837 16.2725ZM77.3732 16.2725C77.3732 18.56 77.9774 20.366 79.1455 21.6903C80.3136 23.0147 81.8442 23.6969 83.818 23.6969C85.7514 23.6969 87.3223 23.0147 88.4904 21.6903C89.6585 20.366 90.2225 18.56 90.2225 16.2725C90.2225 13.9849 89.6585 12.1389 88.4904 10.8145C87.3223 9.49015 85.7514 8.8079 83.818 8.8079C81.8845 8.8079 80.3136 9.49015 79.1455 10.8145C77.9774 12.179 77.3732 13.9849 77.3732 16.2725ZM102.629 15.8712L109.396 6.60063H106.093L100.977 13.6238L95.8616 6.60063H92.5587L99.3257 15.8712L91.9948 25.9443H95.2977L100.977 18.1186L106.697 25.9443H110L102.629 15.8712Z" fill="white"/>
<path d="M16.0389 12.8319C20.8785 16.4981 29.078 25.5044 26.5981 28.0548C23.7583 30.5255 20.0786 32 16.0389 32C11.9992 32 8.27942 30.5255 5.47962 28.0548C2.95979 25.5044 11.1992 16.4981 15.9989 12.8717C15.9989 12.8319 16.0389 12.8319 16.0389 12.8319ZM24.3983 2.35118C21.9585 0.876712 19.2787 0 16.0389 0C12.7991 0 10.1193 0.876712 7.67946 2.35118C7.63947 2.35118 7.63947 2.39103 7.63947 2.43088C7.63947 2.47073 7.67946 2.47073 7.71946 2.47073C10.8392 1.79328 15.5589 4.46326 15.9989 4.74222H16.0389H16.0789C16.5188 4.46326 21.2385 1.79328 24.3583 2.47073C24.3983 2.47073 24.4383 2.47073 24.4383 2.43088C24.4383 2.39103 24.4383 2.35118 24.3983 2.35118ZM4.79966 4.58281C4.75967 4.58281 4.75967 4.62266 4.71967 4.62266C1.79987 7.53176 0 11.5567 0 15.9801C0 19.6065 1.23991 22.9938 3.27977 25.6638C3.27977 25.7036 3.31977 25.7036 3.35976 25.7036C3.39976 25.7036 3.39976 25.6638 3.35976 25.6239C2.11985 21.8381 8.39941 12.7123 11.6392 8.88667L11.6792 8.84682C11.6792 8.80697 11.6792 8.80697 11.6392 8.80697C6.71953 3.9452 5.07964 4.46326 4.79966 4.58281ZM20.4386 8.76712L20.3986 8.80697C20.3986 8.80697 20.3986 8.84682 20.4386 8.84682C23.6783 12.6725 29.9179 21.7983 28.718 25.5841V25.6638C28.758 25.6638 28.798 25.6638 28.798 25.6239C30.8378 22.9539 32.0778 19.5666 32.0778 15.9402C32.0778 11.5168 30.2779 7.4919 27.3181 4.58281C27.2781 4.54296 27.2781 4.54296 27.2381 4.54296C26.9981 4.46326 25.3582 3.9452 20.4386 8.76712Z" fill="white"/>
</svg>
