<svg width="105" height="32" viewBox="0 0 105 32" fill="none" xmlns="http://www.w3.org/2000/svg">
<g clip-path="url(#clip0_4344_254)">
<path d="M16.0221 0.353516C7.76375 0.353516 0.998354 6.69105 0.355469 14.7451L8.78157 18.2124C9.49553 17.7264 10.358 17.4417 11.2859 17.4417C11.3691 17.4417 11.4519 17.4452 11.534 17.4491L15.2811 12.0435C15.2811 12.0177 15.2811 11.9926 15.2811 11.9671C15.2811 8.71349 17.9405 6.06642 21.21 6.06642C24.4791 6.06642 27.1385 8.71349 27.1385 11.9671C27.1385 15.2208 24.4791 17.8682 21.21 17.8682C21.1648 17.8682 21.1201 17.8682 21.0753 17.8647L15.7311 21.6598C15.7346 21.7288 15.7364 21.7992 15.7364 21.8692C15.7364 24.3119 13.7402 26.2982 11.2863 26.2982C9.13233 26.2982 7.33126 24.7681 6.92328 22.7418L0.89707 20.2638C2.76282 26.8312 8.82528 31.6461 16.0221 31.6461C24.7048 31.6461 31.7431 24.6408 31.7431 16.0003C31.7431 7.35848 24.7044 0.353516 16.0221 0.353516Z" fill="white"/>
<path d="M10.2065 24.0942L8.27539 23.3002C8.61762 24.0093 9.20969 24.6032 9.99579 24.9293C11.6952 25.6339 13.6544 24.8313 14.3627 23.1385C14.7057 22.3201 14.7078 21.4164 14.3677 20.5958C14.0283 19.7749 13.3879 19.1347 12.5645 18.793C11.7475 18.4545 10.8722 18.4669 10.1031 18.7559L12.0979 19.5768C13.3513 20.0967 13.9441 21.5292 13.4217 22.7767C12.9003 24.0245 11.46 24.6145 10.2065 24.0942Z" fill="white"/>
<path d="M25.1596 11.9668C25.1596 9.79904 23.3877 8.03516 21.2092 8.03516C19.0311 8.03516 17.2588 9.79904 17.2588 11.9668C17.2588 14.135 19.0311 15.8982 21.2092 15.8982C23.3877 15.8982 25.1596 14.1347 25.1596 11.9668ZM18.2482 11.9601C18.2482 10.3289 19.5769 9.00676 21.216 9.00676C22.855 9.00676 24.1838 10.3289 24.1838 11.9601C24.1838 13.5914 22.855 14.9135 21.216 14.9135C19.5769 14.9135 18.2482 13.591 18.2482 11.9601Z" fill="white"/>
<path d="M48.5327 11.0588L47.4793 12.9015C46.668 12.3374 45.5684 11.9978 44.6085 11.9978C43.5115 11.9978 42.8327 12.4499 42.8327 13.2595C42.8327 14.2431 44.0385 14.4719 45.8307 15.1121C47.7572 15.7902 48.8646 16.587 48.8646 18.3431C48.8646 20.7458 46.9661 22.0952 44.2375 22.0952C42.9077 22.0952 41.3035 21.7535 40.0703 21.0068L40.8386 18.9639C41.8405 19.4905 43.0388 19.8029 44.1071 19.8029C45.5471 19.8029 46.2316 19.2741 46.2316 18.4924C46.2316 17.5979 45.1878 17.3291 43.5029 16.7738C41.5828 16.1357 40.2523 15.2985 40.2523 13.355C40.2523 11.1631 42.016 9.9043 44.5538 9.9043C46.3225 9.9043 47.7441 10.4621 48.5327 11.0588Z" fill="white"/>
<path d="M54.2865 21.8934V12.2237H50.6865V10.1064H60.3561V12.2237H56.7667V21.8934H54.2865Z" fill="white"/>
<path d="M70.3305 14.8732V16.9904H65.584V19.7567H71.091V21.8934H63.1045V10.1064H71.091V12.2173H65.584V14.8732H70.3305Z" fill="white"/>
<path d="M76.6271 19.6046L75.8431 21.8934H73.2432L77.6837 10.1064H80.1802L84.7462 21.893H82.0584L81.2574 19.6043L76.6271 19.6046ZM78.9179 12.918L77.3006 17.6374H80.5686L78.9179 12.918Z" fill="white"/>
<path d="M92.834 21.5499L89.6455 14.724V21.8934H87.2705V10.1064H89.6402L93.6205 18.615L97.4593 10.1064H99.8496V21.8934H97.4749V14.6624L94.2339 21.5499H92.834Z" fill="white"/>
<path d="M104.644 11.5938C104.644 12.6068 103.882 13.2382 103.006 13.2382C102.128 13.2382 101.363 12.6068 101.363 11.5938C101.363 10.5812 102.128 9.9541 103.006 9.9541C103.882 9.9541 104.644 10.5812 104.644 11.5938ZM101.639 11.5938C101.639 12.4413 102.252 12.9736 103.006 12.9736C103.757 12.9736 104.368 12.4413 104.368 11.5938C104.368 10.7439 103.757 10.2197 103.006 10.2197C102.254 10.2197 101.639 10.7503 101.639 11.5938ZM103.029 10.7559C103.454 10.7559 103.596 10.9795 103.596 11.221C103.596 11.4425 103.465 11.591 103.304 11.6667L103.685 12.3766H103.373L103.052 11.7473H102.721V12.3766H102.462V10.7559H103.029ZM102.724 11.51H103.013C103.2 11.51 103.311 11.3929 103.311 11.2458C103.311 11.0972 103.232 11.0018 103.012 11.0018H102.723V11.51H102.724Z" fill="white"/>
</g>
<defs>
<clipPath id="clip0_4344_254">
<rect width="105" height="32" fill="white"/>
</clipPath>
</defs>
</svg>
