<svg width="147" height="32" viewBox="0 0 147 32" fill="none" xmlns="http://www.w3.org/2000/svg">
<path fill-rule="evenodd" clip-rule="evenodd" d="M3.08238 27.1614C-0.149966 26.2367 -0.698828 24.328 0.778649 23.2282C2.14487 22.2085 4.46789 21.4471 4.46789 21.4471L14.0611 18.0186V21.925L7.15731 24.4082C5.93647 24.8534 5.74956 25.4709 6.74196 25.7959C7.73436 26.121 9.5278 26.0289 10.7472 25.5896L14.0581 24.3814V27.8768C13.849 27.9154 13.6131 27.9525 13.398 27.9881C9.94328 28.5519 6.40339 28.2682 3.08238 27.1614ZM23.322 27.5681L34.0871 23.7239C35.3095 23.2787 35.4964 22.6642 34.504 22.3391C33.5116 22.0141 31.7181 22.1061 30.4988 22.5469L23.325 25.079V21.0434L23.7404 20.9024C25.3611 20.3778 27.032 20.0231 28.7261 19.8442C31.641 19.5221 35.2101 19.8887 38.0108 20.9514C41.1689 21.9518 41.525 23.4256 40.7224 24.4408C39.9199 25.456 37.9529 26.1788 37.9529 26.1788L23.325 31.4464L23.322 27.5681ZM24.5814 2.54842C30.2496 4.50612 32.1706 6.94323 32.1706 12.4349C32.1706 17.7855 28.8863 19.8145 24.715 17.7885V7.81002C24.715 6.64044 24.5013 5.56289 23.4096 5.25714C22.5729 4.98701 22.0537 5.7692 22.0537 6.93877V31.9109L15.3606 29.7737V0C18.2072 0.531354 22.3534 1.78108 24.5814 2.54249V2.54842ZM38.9705 29.8805C38.9754 29.9197 38.9707 29.9596 38.9567 29.9965C38.9427 30.0335 38.92 30.0665 38.8904 30.0928C38.8171 30.1381 38.7317 30.1599 38.6457 30.1551H38.1309V29.6223H38.6768C38.7378 29.6199 38.7986 29.631 38.8548 29.6549C38.8943 29.6767 38.9265 29.7099 38.9471 29.7501C38.9677 29.7902 38.9758 29.8357 38.9705 29.8805ZM39.3399 31.0946C39.3252 31.0856 39.3127 31.0735 39.3032 31.0592C39.2937 31.0448 39.2875 31.0285 39.285 31.0115C39.2742 30.9628 39.2692 30.913 39.2702 30.8631L39.2598 30.6211C39.264 30.5328 39.2413 30.4453 39.1945 30.3703C39.1632 30.3332 39.1256 30.302 39.0833 30.2783C39.1389 30.2421 39.1868 30.1952 39.2242 30.1403C39.2751 30.0531 39.3003 29.9532 39.2969 29.8523C39.3042 29.7563 39.2818 29.6603 39.2327 29.5775C39.1836 29.4946 39.1102 29.4289 39.0224 29.3892C38.9111 29.3432 38.7913 29.3214 38.6709 29.3254H37.809V31.2104H38.1309V30.4371H38.6382C38.7053 30.4333 38.7725 30.4434 38.8355 30.4668C38.8703 30.4867 38.8987 30.5161 38.9174 30.5516C38.936 30.5871 38.9442 30.6272 38.9409 30.6672L38.9557 30.964C38.9564 31.0137 38.9609 31.0634 38.969 31.1124C38.9736 31.1372 38.9815 31.1612 38.9928 31.1837L39.0046 31.2059H39.3636V31.0961L39.3399 31.0946ZM37.1311 30.308C37.1299 29.9353 37.276 29.5773 37.5375 29.3121C37.6651 29.1811 37.8176 29.077 37.986 29.0059C38.1544 28.9349 38.3353 28.8983 38.5181 28.8983C38.7009 28.8983 38.8818 28.9349 39.0502 29.0059C39.2186 29.077 39.3711 29.1811 39.4986 29.3121C39.692 29.509 39.8235 29.7584 39.8768 30.0293C39.9301 30.3002 39.903 30.5808 39.7987 30.8364C39.6943 31.092 39.5175 31.3115 39.2899 31.4676C39.0623 31.6238 38.794 31.7098 38.5181 31.715C38.3354 31.7152 38.1545 31.6787 37.9861 31.6079C37.8177 31.537 37.6652 31.4332 37.5375 31.3024C37.2763 31.0375 37.1303 30.6801 37.1311 30.308ZM38.5181 32C38.7377 32.0003 38.9551 31.9564 39.1574 31.871C39.3598 31.7856 39.5429 31.6604 39.6959 31.5028C40.0087 31.1832 40.1838 30.7538 40.1838 30.3065C40.1838 29.8592 40.0087 29.4298 39.6959 29.1102C39.5426 28.9531 39.3594 28.8283 39.1571 28.7431C38.9548 28.658 38.7375 28.6142 38.5181 28.6145C38.1864 28.6207 37.8639 28.7241 37.5903 28.9118C37.3168 29.0995 37.1042 29.3634 36.9789 29.6707C36.8535 29.978 36.821 30.3153 36.8852 30.6409C36.9494 30.9665 37.1076 31.2662 37.3403 31.5028C37.4933 31.6604 37.6764 31.7856 37.8787 31.871C38.0811 31.9564 38.2985 32.0003 38.5181 32Z" fill="white"/>
<path d="M140.181 6.37305H112.886V13.7764C112.886 13.7764 112.803 16.635 116.337 16.635H133.021C133.675 16.6297 134.323 16.7616 134.924 17.0224C135.855 17.438 136.903 18.284 136.903 19.9909C136.903 21.5226 136.161 22.3923 135.427 22.8792C134.819 23.2721 134.109 23.4785 133.386 23.4729H112.886V25.5508H135.744C135.744 25.5508 140.936 25.34 140.936 20.0012C140.936 17.2866 139.352 15.9419 137.926 15.2829C137.005 14.8595 136.003 14.6422 134.989 14.6461H118.454C118.178 14.6498 117.906 14.585 117.661 14.4576C117.308 14.2662 116.92 13.8862 116.92 13.1382V8.42277H140.181V6.37305ZM78.532 23.4654V25.5434H90.1175C91.5022 25.558 92.8456 25.0715 93.9002 24.1734C94.4441 23.7115 94.878 23.1338 95.17 22.4826C95.4621 21.8313 95.605 21.123 95.5883 20.4094V11.5768C95.5823 11.0937 95.6861 10.6157 95.8916 10.1786C96.0972 9.74152 96.3993 9.35684 96.775 9.05357C97.3083 8.63583 97.9684 8.41324 98.6456 8.42277H108.746V6.37305H96.7172C96.7172 6.37305 91.5252 6.45616 91.5252 11.9508V20.1986C91.5344 20.8741 91.3523 21.5384 91.0001 22.1148C90.7453 22.541 90.3813 22.8914 89.9457 23.1296C89.5102 23.3678 89.019 23.4853 88.5228 23.4699L78.532 23.4654ZM51.7832 6.37305V8.42277H72.4323C73.0066 8.41787 73.575 8.54001 74.0967 8.78047C74.9155 9.16488 75.8352 9.95598 75.8352 11.5604C75.8352 13.1189 74.9155 13.8981 74.0967 14.284C73.5664 14.5275 72.989 14.6511 72.4056 14.6461H57.0908C56.1843 14.6377 55.2883 14.841 54.4741 15.2398C53.1999 15.8795 51.7832 17.386 51.7832 19.8706V25.5107H55.7573V19.8959C55.7546 19.5306 55.8205 19.1681 55.9516 18.8272C56.2794 17.9857 57.1086 16.635 59.0475 16.635H74.4898C75.0091 16.6378 75.5263 16.5684 76.0266 16.4287C77.4447 16.025 79.8093 14.8584 79.8093 11.5604C79.8093 6.43538 74.7108 6.37305 74.7108 6.37305H51.7832Z" fill="white"/>
<path fill-rule="evenodd" clip-rule="evenodd" d="M145.543 23.4919C145.549 23.5383 145.543 23.5853 145.526 23.629C145.51 23.6727 145.482 23.7117 145.447 23.7427C145.359 23.7963 145.256 23.822 145.153 23.8163H144.535V23.1868H145.19C145.263 23.184 145.336 23.1972 145.404 23.2254C145.451 23.2512 145.49 23.2903 145.515 23.3378C145.539 23.3853 145.549 23.4389 145.543 23.4919ZM145.986 24.9264C145.969 24.9158 145.954 24.9015 145.942 24.8845C145.931 24.8675 145.924 24.8483 145.921 24.8282C145.908 24.7706 145.902 24.7118 145.903 24.6528L145.89 24.367C145.895 24.2626 145.868 24.1593 145.812 24.0706C145.774 24.0268 145.729 23.99 145.678 23.9619C145.745 23.9191 145.803 23.8637 145.848 23.7988C145.909 23.6958 145.939 23.5779 145.935 23.4586C145.944 23.3451 145.917 23.2318 145.858 23.1339C145.799 23.036 145.711 22.9583 145.605 22.9115C145.472 22.8571 145.328 22.8314 145.183 22.8361H144.148V25.0632H144.535V24.1495H145.144C145.224 24.1451 145.305 24.157 145.381 24.1846C145.423 24.2081 145.457 24.2429 145.479 24.2848C145.501 24.3268 145.511 24.3741 145.507 24.4213L145.525 24.7721C145.526 24.8308 145.531 24.8895 145.541 24.9474C145.547 24.9767 145.556 25.005 145.57 25.0316L145.584 25.0579H146.015V24.9281L145.986 24.9264ZM143.334 23.997C143.332 23.5567 143.508 23.1337 143.822 22.8203C143.975 22.6656 144.158 22.5426 144.361 22.4586C144.563 22.3747 144.78 22.3314 145 22.3314C145.219 22.3314 145.436 22.3747 145.639 22.4586C145.841 22.5426 146.024 22.6656 146.177 22.8203C146.409 23.053 146.567 23.3476 146.631 23.6677C146.695 23.9877 146.663 24.3193 146.537 24.6213C146.412 24.9233 146.2 25.1826 145.926 25.3671C145.653 25.5516 145.331 25.6532 145 25.6594C144.78 25.6596 144.563 25.6165 144.361 25.5328C144.158 25.4491 143.975 25.3264 143.822 25.1719C143.508 24.8589 143.333 24.4366 143.334 23.997ZM145 25.9961C145.263 25.9964 145.524 25.9446 145.767 25.8437C146.01 25.7428 146.23 25.5948 146.414 25.4086C146.79 25.0311 147 24.5237 147 23.9952C147 23.4668 146.79 22.9594 146.414 22.5818C146.23 22.3962 146.01 22.2487 145.767 22.1481C145.524 22.0475 145.263 21.9958 145 21.9961C144.601 22.0035 144.214 22.1256 143.885 22.3474C143.557 22.5692 143.302 22.8809 143.151 23.244C143.001 23.6071 142.961 24.0056 143.039 24.3903C143.116 24.775 143.306 25.1291 143.585 25.4086C143.769 25.5948 143.989 25.7428 144.232 25.8437C144.475 25.9446 144.736 25.9964 145 25.9961Z" fill="white"/>
</svg>
