<svg width="120" height="32" viewBox="0 0 120 32" fill="none" xmlns="http://www.w3.org/2000/svg">
<g clip-path="url(#clip0_4445_1103)">
<path d="M55.832 22.7148V17.0527H57.4775V25.5771H55.7666L51.917 19.9355V25.5771H50.2686V17.0527H51.9795L55.832 22.7148Z" fill="white"/>
<path fill-rule="evenodd" clip-rule="evenodd" d="M64.583 17.0527C64.959 17.0537 65.3191 17.2039 65.585 17.4697C65.8508 17.7356 66.001 18.0957 66.002 18.4717V24.1543C66.0029 24.5277 65.8565 24.887 65.5947 25.1533C65.333 25.4195 64.9768 25.5717 64.6035 25.5771H60.3184C59.9451 25.5771 59.5869 25.4302 59.3213 25.168C59.0556 24.9055 58.9039 24.5482 58.8994 24.1748L58.8789 18.4717C58.8798 18.0956 59.03 17.7356 59.2959 17.4697C59.5618 17.2038 59.9218 17.0537 60.2979 17.0527H64.583ZM60.9766 18.5537C60.8623 18.5546 60.7526 18.6009 60.6719 18.6816C60.5912 18.7624 60.5458 18.8722 60.5449 18.9863V23.6299C60.5448 23.7409 60.5875 23.8483 60.6641 23.9287C60.7406 24.0091 60.8452 24.0572 60.9561 24.0625H63.9043C64.0151 24.0626 64.1218 24.0197 64.2021 23.9434C64.2826 23.8668 64.3306 23.7613 64.3359 23.6504V19.0068C64.3372 18.8934 64.2951 18.7831 64.2188 18.6992C64.1425 18.6155 64.0376 18.5633 63.9248 18.5537H60.9766Z" fill="white"/>
<path d="M70.3691 22.8594L72.0176 17.0527H73.416L75.168 22.8594L76.7344 17.0527H78.4209L75.8467 25.5771H74.4072L72.6758 20.0791L71.0479 25.5771H69.5879L66.8486 17.0527H68.6992L70.3691 22.8594Z" fill="white"/>
<path d="M80.1113 17.1963H79.7412V18.2246H79.5967V17.1963H79.2061V17.0527H80.1113V17.1963Z" fill="white"/>
<path d="M80.8311 17.7314L81.2217 17.0527H81.3857V18.2246H81.2422V17.3203L80.8926 17.8955H80.7686L80.4395 17.3408V18.2246H80.2959V17.0527H80.4395L80.8311 17.7314Z" fill="white"/>
<path d="M57.0859 7.96875H52.3701C52.2536 7.96863 52.1409 8.0133 52.0566 8.09375C51.9724 8.17416 51.9223 8.28409 51.917 8.40039V12.3936C51.9155 12.4475 51.9261 12.5012 51.9473 12.5508C51.9686 12.6005 52.0008 12.6454 52.041 12.6816L52.6367 13.2607C52.6769 13.3012 52.7254 13.3333 52.7783 13.3545C52.8313 13.3757 52.8883 13.3863 52.9453 13.3848H55.2324C55.3432 13.3848 55.45 13.342 55.5303 13.2656C55.6107 13.189 55.6588 13.0836 55.6641 12.9727V11.4473H53.6689V9.90527H57.374V13.5283C57.374 13.905 57.225 14.2666 56.959 14.5332C56.693 14.7998 56.3317 14.9503 55.9551 14.9512H52.1436C52.0864 14.9528 52.0296 14.9421 51.9766 14.9209C51.9235 14.8997 51.8752 14.8677 51.835 14.8271L50.3916 13.3848C50.3529 13.3474 50.322 13.3024 50.3008 13.2529C50.2796 13.2036 50.269 13.1504 50.2686 13.0967V7.8457C50.2704 7.46901 50.4211 7.10817 50.6875 6.8418C50.9539 6.57543 51.3147 6.42465 51.6914 6.42285H57.0859V7.96875Z" fill="white"/>
<path d="M72.0381 7.92773H67.7324V9.92578H71.1914V11.4268H67.7324V14.9512H66.0635V6.42285H72.0381V7.92773Z" fill="white"/>
<path fill-rule="evenodd" clip-rule="evenodd" d="M78.915 6.42285C79.2919 6.42383 79.6534 6.57432 79.9199 6.84082C80.1863 7.10736 80.336 7.46887 80.3369 7.8457V13.5283C80.3369 13.7149 80.3009 13.8998 80.2295 14.0723C80.158 14.2448 80.053 14.4021 79.9209 14.5342C79.7888 14.6663 79.6316 14.7713 79.459 14.8428C79.2866 14.9142 79.1017 14.9511 78.915 14.9512H74.6338C74.2598 14.9521 73.9002 14.8045 73.6338 14.542C73.3675 14.2795 73.2155 13.9227 73.2109 13.5488V7.8457C73.2118 7.46873 73.3623 7.10738 73.6289 6.84082C73.8955 6.57426 74.2568 6.42376 74.6338 6.42285H78.915ZM75.292 7.94824C75.1778 7.94914 75.0681 7.99456 74.9873 8.0752C74.9065 8.15597 74.8603 8.26566 74.8594 8.37988V13.0244C74.8593 13.1353 74.9022 13.2419 74.9785 13.3223C75.0551 13.4027 75.1605 13.4508 75.2715 13.4561H78.2363V13.4355C78.3473 13.4356 78.4538 13.3929 78.5342 13.3164C78.6146 13.2398 78.6627 13.1353 78.668 13.0244V8.37988C78.6694 8.32282 78.6589 8.26589 78.6377 8.21289C78.6165 8.15998 78.5852 8.1116 78.5449 8.07129C78.5046 8.031 78.4562 7.99972 78.4033 7.97852C78.3504 7.95734 78.2933 7.94687 78.2363 7.94824H75.292Z" fill="white"/>
<path fill-rule="evenodd" clip-rule="evenodd" d="M86.8428 6.42285C87.2198 6.42376 87.5811 6.57426 87.8477 6.84082C88.1141 7.10737 88.2647 7.46881 88.2656 7.8457V10.0488C88.2647 10.4254 88.1142 10.7867 87.8477 11.0527C87.581 11.3188 87.2195 11.4687 86.8428 11.4688H86.7773L88.834 14.9512H87.0654L84.9502 11.4688H83.3838V14.9512H81.7354V6.42285H86.8428ZM83.3838 9.9668H86.1641C86.2751 9.96692 86.3825 9.92425 86.4629 9.84766C86.5431 9.77109 86.5904 9.66644 86.5957 9.55566V8.40039C86.5971 8.34335 86.5876 8.28638 86.5664 8.2334C86.5452 8.18039 86.513 8.13217 86.4727 8.0918C86.4323 8.0515 86.384 8.02021 86.3311 7.99902C86.278 7.97782 86.2212 7.96734 86.1641 7.96875H83.3838V9.9668Z" fill="white"/>
<path d="M95.4131 7.92773H91.7861C91.6719 7.92864 91.5622 7.97391 91.4814 8.05469C91.4007 8.13547 91.3554 8.24514 91.3545 8.35938V13.0137C91.3544 13.1247 91.397 13.2321 91.4736 13.3125C91.5502 13.3928 91.6547 13.441 91.7656 13.4463H95.3926V14.9512H91.1484C90.7718 14.9502 90.4105 14.7998 90.1445 14.5332C89.8785 14.2666 89.7295 13.9049 89.7295 13.5283V7.8457C89.7304 7.46944 89.8798 7.10824 90.1455 6.8418C90.4113 6.57537 90.7721 6.4247 91.1484 6.42285H95.4131V7.92773Z" fill="white"/>
<path d="M64.8301 7.88672H60.5039V9.92578H63.9658V11.4277H60.5039V13.4053H64.8301V14.9102H58.8584V6.38184H64.8301V7.88672Z" fill="white"/>
<path d="M102.744 7.88672H98.4385V9.92578H101.897V11.4277H98.4385V13.4053H102.744V14.9102H96.7695V6.38184H102.744V7.88672Z" fill="white"/>
<path d="M33.25 25.4941C33.2726 25.4991 33.2923 25.5124 33.3057 25.5312C33.3189 25.5502 33.3253 25.5737 33.3223 25.5967C33.3223 25.6378 33.2599 25.6797 33.2188 25.6797H33.1162V25.4941H33.25Z" fill="white"/>
<path fill-rule="evenodd" clip-rule="evenodd" d="M33.25 25.1855C33.3886 25.1892 33.5201 25.2477 33.6162 25.3477C33.7125 25.4477 33.7655 25.5819 33.7637 25.7207C33.7616 25.8284 33.7275 25.9331 33.666 26.0215C33.6044 26.1099 33.5183 26.1784 33.418 26.2178C33.3176 26.2571 33.2078 26.2652 33.1025 26.2422C32.9972 26.2192 32.9009 26.1655 32.8262 26.0879C32.7516 26.0104 32.7017 25.9125 32.6826 25.8066C32.6636 25.7006 32.6766 25.591 32.7197 25.4922C32.7628 25.3934 32.8341 25.3092 32.9248 25.251C33.0155 25.1929 33.1218 25.163 33.2295 25.165L33.25 25.1855ZM32.9717 26.0703H33.1162V25.7822H33.208L33.332 26.0703L33.5166 26.0635L33.373 25.7754C33.4089 25.7593 33.4391 25.7329 33.4609 25.7002C33.4828 25.6675 33.495 25.6292 33.4961 25.5898C33.4908 25.5281 33.4626 25.4706 33.417 25.4287C33.3714 25.387 33.3118 25.3641 33.25 25.3643H32.9717V26.0703Z" fill="white"/>
<path d="M21.3037 22.2109C21.4913 22.1829 21.6829 22.1984 21.8633 22.2568C22.0437 22.3153 22.2083 22.4151 22.3438 22.5479C22.4792 22.6806 22.5824 22.8432 22.6445 23.0225C22.7066 23.2018 22.7265 23.3938 22.7021 23.582C22.7265 23.7702 22.7066 23.9614 22.6445 24.1406C22.5824 24.32 22.4793 24.4824 22.3438 24.6152C22.2082 24.7481 22.0438 24.8477 21.8633 24.9062C21.6828 24.9647 21.4913 24.9811 21.3037 24.9531H20.7207V22.2109H21.3037Z" fill="white"/>
<path d="M30.2158 24.3086H28.5361L29.3857 22.043L30.2158 24.3086Z" fill="white"/>
<path d="M15.9805 9.78906C16.6033 9.80731 17.2156 9.95874 17.7754 10.2324C18.335 10.5061 18.8297 10.8958 19.2266 11.376L17.585 12.7715C16.848 11.5444 16.5836 10.9955 15.3564 10.8447V14.3584C14.8256 14.1245 14.3531 13.7759 13.9717 13.3389C13.5902 12.9017 13.3093 12.3858 13.1494 11.8281C13.4202 11.5082 13.7589 11.2522 14.1406 11.0791C14.5222 10.9062 14.9376 10.82 15.3564 10.8271V9.84375L15.9805 9.78906Z" fill="white"/>
<path fill-rule="evenodd" clip-rule="evenodd" d="M111.434 32H0V0H120L111.434 32ZM37.3975 30.3955H110.278L117.981 1.60449H45.1201L37.3975 30.3955ZM33.0645 25.0381C32.9315 25.0645 32.8088 25.1297 32.7129 25.2256C32.6172 25.3213 32.5519 25.4434 32.5254 25.5762C32.4989 25.7091 32.5126 25.8474 32.5645 25.9727C32.6163 26.0979 32.7046 26.2049 32.8174 26.2803C32.9301 26.3556 33.0627 26.3955 33.1982 26.3955V26.3926C33.2893 26.398 33.3805 26.3838 33.4658 26.3516C33.5511 26.3193 33.6287 26.2694 33.6934 26.2051C33.7581 26.1407 33.8091 26.0628 33.8418 25.9775C33.8744 25.8924 33.8888 25.801 33.8838 25.71C33.8837 25.5745 33.8438 25.4417 33.7686 25.3291C33.6933 25.2165 33.586 25.129 33.4609 25.0771C33.3357 25.0253 33.1974 25.0117 33.0645 25.0381ZM19.3604 26.0049H21.5674C22.7397 26.0049 23.138 25.8167 23.5527 25.3643C23.9156 24.8608 24.0893 24.2448 24.043 23.626C24.063 23.0426 23.9113 22.4662 23.6074 21.9678C23.1001 21.2857 22.3796 21.1553 21.2861 21.1553H19.3604V26.0049ZM24.6797 26.0049H26.0234L26.0508 21.1553H24.6797V26.0049ZM26.5928 26.0049H27.9326L28.2344 25.1553H30.4795L30.7646 26.0049L32.2217 25.9883L30.291 21.1719H28.499L26.5928 26.0049ZM6.43359 21.1553V25.9883H7.80469V22.3066H8.86426C9.00457 22.2953 9.14604 22.313 9.2793 22.3584C9.4123 22.4038 9.53464 22.4759 9.63867 22.5703C9.89322 22.9474 10.0007 23.4055 9.94043 23.8564V25.9678H11.2773L11.2881 23.2871C11.2881 21.3816 10.078 21.1172 8.88867 21.1172L6.43359 21.1553ZM13.0527 25.9883H15.0176L16.584 21.1553H15.1885L14.0537 24.9873L12.9609 21.1553H11.4863L13.0527 25.9883ZM17.1592 25.9883H18.5303V21.1553H17.1592V25.9883ZM15.3564 7.74902C15.4719 7.74874 15.5841 7.73242 15.6963 7.73242C17.1012 7.77042 18.4808 8.11462 19.7393 8.74023C20.9978 9.36591 22.105 10.2583 22.9834 11.3555C22.9558 11.3888 19.6547 15.376 16.2412 15.376C15.9439 15.3711 15.6473 15.3461 15.3535 15.3008V16.3428C14.1306 16.0776 12.9993 15.494 12.0742 14.6514C11.1491 13.8088 10.4628 12.7368 10.085 11.5439C10.7138 10.7254 11.5083 10.049 12.416 9.55762C13.3237 9.06633 14.3244 8.77131 15.3535 8.69238V9.82324C13.9275 9.99489 12.6 10.6391 11.583 11.6533C11.8324 12.537 12.3139 13.338 12.9775 13.9727C13.6411 14.6073 14.4625 15.0529 15.3564 15.2627V14.3584C15.6619 14.4576 15.9815 14.5081 16.3027 14.5088C18.6816 14.5088 20.9155 11.4374 20.9473 11.3936C20.3243 10.5837 19.5314 9.91986 18.624 9.4502C17.7167 8.98057 16.7172 8.71585 15.6963 8.6748C15.5832 8.6748 15.47 8.69238 15.3535 8.69238V7.75C12.6284 8.1898 10.101 9.44721 8.10645 11.3555C8.66883 12.9171 9.64 14.2993 10.918 15.3584C12.196 16.4176 13.735 17.1152 15.374 17.3779V16.3945C15.6176 16.4326 15.8638 16.4515 16.1104 16.4521C19.047 16.271 21.8081 14.9913 23.8438 12.8672C24.2207 13.179 25.7312 13.8847 26.0508 14.207C23.1099 16.1713 19.6849 17.2892 16.1514 17.4365C15.8841 17.4365 15.6203 17.4156 15.3564 17.3984V18.9062H27.5352V6.07031L15.3564 6.01172V7.74902Z" fill="white"/>
</g>
<defs>
<clipPath id="clip0_4445_1103">
<rect width="120" height="32" fill="white"/>
</clipPath>
</defs>
</svg>
